STARTFONT 2.1
FONT -FontForge-Roboto-Book-R-Normal--25-240-75-75-P-126-ISO10646-1
SIZE 24 75 75
FONTBOUNDINGBOX 23 27 -1 -6
COMMENT "Generated by fontforge, http://fontforge.sourceforge.net"
COMMENT "Copyright 2011 Google Inc. All Rights Reserved."
STARTPROPERTIES 39
FOUNDRY "FontForge"
FAMILY_NAME "Roboto"
WEIGHT_NAME "Book"
SLANT "R"
SETWIDTH_NAME "Normal"
ADD_STYLE_NAME ""
PIXEL_SIZE 25
POINT_SIZE 240
RESOLUTION_X 75
RESOLUTION_Y 75
SPACING "P"
AVERAGE_WIDTH 126
CHARSET_REGISTRY "ISO10646"
CHARSET_ENCODING "1"
FONTNAME_REGISTRY ""
CHARSET_COLLECTIONS "ISO10646-1"
FONT_NAME "Roboto-Regular"
FACE_NAME "Roboto"
COPYRIGHT "Copyright 2011 Google Inc. All Rights Reserved."
FONT_VERSION "2.137; 2017"
FONT_ASCENT 19
FONT_DESCENT 6
UNDERLINE_POSITION -2
UNDERLINE_THICKNESS 2
X_HEIGHT 12
CAP_HEIGHT 17
RAW_ASCENT 750
RAW_DESCENT 250
RELATIVE_WEIGHT 40
RELATIVE_SETWIDTH 50
SUPERSCRIPT_X 0
SUPERSCRIPT_Y 11
SUPERSCRIPT_SIZE 16
SUBSCRIPT_X 0
SUBSCRIPT_Y 3
SUBSCRIPT_SIZE 16
FIGURE_WIDTH 14
AVG_LOWERCASE_WIDTH 124
AVG_UPPERCASE_WIDTH 158
ENDPROPERTIES
CHARS 96
STARTCHAR exclam
ENCODING 33
SWIDTH 257 0
DWIDTH 6 0
BBX 3 18 2 0
BITMAP
C0
C0
C0
C0
C0
C0
C0
C0
C0
C0
C0
C0
00
00
00
C0
E0
C0
ENDCHAR
STARTCHAR quotedbl
ENCODING 34
SWIDTH 319 0
DWIDTH 8 0
BBX 5 6 2 13
BITMAP
98
98
98
98
90
90
ENDCHAR
STARTCHAR numbersign
ENCODING 35
SWIDTH 615 0
DWIDTH 15 0
BBX 14 18 1 0
BITMAP
0318
0210
0630
0630
0630
7FFC
7FFC
0C60
0C60
0C60
0C60
FFF8
FFF8
18C0
18C0
18C0
1080
3180
ENDCHAR
STARTCHAR dollar
ENCODING 36
SWIDTH 561 0
DWIDTH 14 0
BBX 12 23 1 -2
BITMAP
0600
0600
0600
0F80
3FC0
70E0
7060
6060
6070
7000
3800
1F00
07C0
01E0
0060
0070
E070
6070
70E0
3FE0
1F80
0600
0600
ENDCHAR
STARTCHAR percent
ENCODING 37
SWIDTH 732 0
DWIDTH 18 0
BBX 16 18 1 0
BITMAP
3C00
7E00
C608
C318
C330
C620
7E60
3CC0
0080
0180
031E
023F
0663
0C61
0863
1863
003F
001E
ENDCHAR
STARTCHAR ampersand
ENCODING 38
SWIDTH 621 0
DWIDTH 16 0
BBX 14 18 1 0
BITMAP
0F00
1FC0
38C0
30C0
30C0
30C0
3B80
1F00
1E00
3E00
7318
6398
E1D8
E0F8
E070
70F8
3FD8
1F9C
ENDCHAR
STARTCHAR quotesingle
ENCODING 39
SWIDTH 174 0
DWIDTH 4 0
BBX 2 6 1 13
BITMAP
C0
C0
C0
C0
C0
C0
ENDCHAR
STARTCHAR parenleft
ENCODING 40
SWIDTH 341 0
DWIDTH 9 0
BBX 6 26 2 -6
BITMAP
04
0C
18
30
30
60
60
E0
C0
C0
C0
C0
C0
C0
C0
C0
C0
C0
E0
60
60
30
30
18
0C
04
ENDCHAR
STARTCHAR parenright
ENCODING 41
SWIDTH 347 0
DWIDTH 9 0
BBX 7 26 0 -6
BITMAP
40
E0
30
30
18
18
0C
0C
0C
0E
06
06
06
06
06
06
0E
0C
0C
0C
18
18
30
30
60
C0
ENDCHAR
STARTCHAR asterisk
ENCODING 42
SWIDTH 430 0
DWIDTH 11 0
BBX 10 10 0 8
BITMAP
0C00
0400
0400
64C0
FFC0
0E00
1E00
1B00
3180
2100
ENDCHAR
STARTCHAR plus
ENCODING 43
SWIDTH 566 0
DWIDTH 14 0
BBX 12 13 1 2
BITMAP
0600
0600
0600
0600
0600
FFF0
FFF0
0600
0600
0600
0600
0600
0600
ENDCHAR
STARTCHAR comma
ENCODING 44
SWIDTH 196 0
DWIDTH 5 0
BBX 4 6 0 -3
BITMAP
30
30
70
60
60
C0
ENDCHAR
STARTCHAR hyphen
ENCODING 45
SWIDTH 275 0
DWIDTH 7 0
BBX 6 2 0 6
BITMAP
FC
FC
ENDCHAR
STARTCHAR period
ENCODING 46
SWIDTH 263 0
DWIDTH 7 0
BBX 3 3 2 0
BITMAP
C0
E0
C0
ENDCHAR
STARTCHAR slash
ENCODING 47
SWIDTH 412 0
DWIDTH 10 0
BBX 10 20 0 -2
BITMAP
01C0
0180
0180
0300
0300
0300
0600
0600
0C00
0C00
0C00
1800
1800
1800
3000
3000
2000
6000
6000
C000
ENDCHAR
STARTCHAR zero
ENCODING 48
SWIDTH 561 0
DWIDTH 14 0
BBX 12 18 1 0
BITMAP
1F80
3FC0
70E0
6060
6060
E060
E070
E070
E070
E070
E070
E070
6060
6060
6060
70E0
3FC0
1F80
ENDCHAR
STARTCHAR one
ENCODING 49
SWIDTH 561 0
DWIDTH 14 0
BBX 7 18 2 0
BITMAP
06
3E
FE
C6
06
06
06
06
06
06
06
06
06
06
06
06
06
06
ENDCHAR
STARTCHAR two
ENCODING 50
SWIDTH 561 0
DWIDTH 14 0
BBX 12 18 1 0
BITMAP
1F80
3FC0
70E0
E060
C060
0060
0060
00E0
01C0
0180
0300
0600
0C00
1C00
3800
7000
FFF0
FFF0
ENDCHAR
STARTCHAR three
ENCODING 51
SWIDTH 561 0
DWIDTH 14 0
BBX 11 18 1 0
BITMAP
1F00
3FC0
70E0
E060
E060
0060
0060
01C0
0F80
0FC0
00E0
0060
0060
C060
E060
70E0
3FC0
1F80
ENDCHAR
STARTCHAR four
ENCODING 52
SWIDTH 561 0
DWIDTH 14 0
BBX 12 18 1 0
BITMAP
01C0
01C0
03C0
07C0
06C0
0CC0
1CC0
18C0
30C0
30C0
60C0
E0C0
FFF0
FFF0
00C0
00C0
00C0
00C0
ENDCHAR
STARTCHAR five
ENCODING 53
SWIDTH 561 0
DWIDTH 14 0
BBX 11 18 2 0
BITMAP
7FE0
7FE0
6000
6000
6000
6000
7F00
7F80
61C0
00E0
0060
0060
0060
C060
C0E0
61C0
7F80
1F00
ENDCHAR
STARTCHAR six
ENCODING 54
SWIDTH 561 0
DWIDTH 14 0
BBX 11 18 2 0
BITMAP
0700
1F00
3800
7000
6000
C000
DF00
FF80
F1C0
C0C0
C0E0
C060
C060
C0E0
E0C0
71C0
3F80
1F00
ENDCHAR
STARTCHAR seven
ENCODING 55
SWIDTH 561 0
DWIDTH 14 0
BBX 12 18 1 0
BITMAP
FFF0
FFF0
0060
0060
00E0
00C0
01C0
0180
0180
0300
0300
0600
0600
0E00
0C00
1C00
1800
3800
ENDCHAR
STARTCHAR eight
ENCODING 56
SWIDTH 561 0
DWIDTH 14 0
BBX 12 18 1 0
BITMAP
0F80
3FC0
70E0
6060
6060
6060
6060
30C0
1FC0
3FC0
70E0
6060
E070
E070
6070
70E0
3FC0
1F80
ENDCHAR
STARTCHAR nine
ENCODING 57
SWIDTH 561 0
DWIDTH 14 0
BBX 11 18 1 0
BITMAP
1F00
3F80
71C0
60E0
E060
C060
C060
E060
6060
71E0
3FE0
1E60
0060
00E0
00C0
0380
1F00
1C00
ENDCHAR
STARTCHAR colon
ENCODING 58
SWIDTH 242 0
DWIDTH 6 0
BBX 2 13 2 0
BITMAP
C0
C0
C0
00
00
00
00
00
00
00
C0
C0
C0
ENDCHAR
STARTCHAR semicolon
ENCODING 59
SWIDTH 211 0
DWIDTH 5 0
BBX 4 16 0 -3
BITMAP
30
70
30
00
00
00
00
00
00
00
30
30
30
70
60
C0
ENDCHAR
STARTCHAR less
ENCODING 60
SWIDTH 508 0
DWIDTH 13 0
BBX 10 11 1 2
BITMAP
0040
01C0
0FC0
3E00
F800
C000
F800
3E00
0FC0
01C0
0040
ENDCHAR
STARTCHAR equal
ENCODING 61
SWIDTH 548 0
DWIDTH 14 0
BBX 10 7 2 5
BITMAP
FFC0
FFC0
0000
0000
0000
FFC0
FFC0
ENDCHAR
STARTCHAR greater
ENCODING 62
SWIDTH 522 0
DWIDTH 13 0
BBX 10 11 2 2
BITMAP
8000
E000
F800
1F00
07C0
00C0
07C0
1F00
F800
E000
8000
ENDCHAR
STARTCHAR question
ENCODING 63
SWIDTH 472 0
DWIDTH 12 0
BBX 10 18 1 0
BITMAP
3E00
7F80
E180
C1C0
00C0
01C0
0180
0380
0700
0E00
0C00
1C00
1C00
0000
0000
0C00
1C00
0C00
ENDCHAR
STARTCHAR at
ENCODING 64
SWIDTH 897 0
DWIDTH 22 0
BBX 20 22 1 -5
BITMAP
00FC00
07FF00
0F03C0
1C00C0
380060
307820
60FE30
61C430
618410
430C10
C30C10
C30C10
C30C30
C30C30
631C60
63FFE0
61E780
300000
380000
1E0400
0FFC00
01F800
ENDCHAR
STARTCHAR A
ENCODING 65
SWIDTH 652 0
DWIDTH 16 0
BBX 16 18 0 0
BITMAP
0180
03C0
03C0
03C0
0660
0660
0660
0C30
0C30
1C38
1818
1FF8
3FFC
300C
700E
6006
6006
E007
ENDCHAR
STARTCHAR B
ENCODING 66
SWIDTH 622 0
DWIDTH 16 0
BBX 12 18 2 0
BITMAP
FF80
FFC0
C0E0
C070
C070
C070
C060
C0E0
FFC0
FFC0
C060
C070
C030
C030
C070
C0F0
FFE0
FF80
ENDCHAR
STARTCHAR C
ENCODING 67
SWIDTH 650 0
DWIDTH 16 0
BBX 14 18 1 0
BITMAP
07C0
1FF0
3838
701C
701C
600C
6000
E000
E000
E000
E000
6000
600C
701C
701C
3838
1FF0
07C0
ENDCHAR
STARTCHAR D
ENCODING 68
SWIDTH 655 0
DWIDTH 16 0
BBX 13 18 2 0
BITMAP
FF00
FFC0
C0E0
C070
C030
C038
C038
C018
C018
C018
C018
C038
C038
C030
C070
C1E0
FFC0
FF00
ENDCHAR
STARTCHAR E
ENCODING 69
SWIDTH 568 0
DWIDTH 14 0
BBX 11 18 2 0
BITMAP
FFE0
FFE0
C000
C000
C000
C000
C000
C000
FFC0
FFC0
C000
C000
C000
C000
C000
C000
FFE0
FFE0
ENDCHAR
STARTCHAR F
ENCODING 70
SWIDTH 552 0
DWIDTH 14 0
BBX 11 18 2 0
BITMAP
FFE0
FFE0
C000
C000
C000
C000
C000
C000
FFC0
FFC0
C000
C000
C000
C000
C000
C000
C000
C000
ENDCHAR
STARTCHAR G
ENCODING 71
SWIDTH 681 0
DWIDTH 17 0
BBX 14 18 1 0
BITMAP
07E0
1FF0
3838
701C
700C
6000
6000
E000
E000
E0FC
60FC
600C
600C
700C
300C
3C1C
1FF8
07E0
ENDCHAR
STARTCHAR H
ENCODING 72
SWIDTH 712 0
DWIDTH 18 0
BBX 14 18 2 0
BITMAP
C01C
C01C
C01C
C01C
C01C
C01C
C01C
C01C
FFFC
FFFC
C01C
C01C
C01C
C01C
C01C
C01C
C01C
C01C
ENDCHAR
STARTCHAR I
ENCODING 73
SWIDTH 271 0
DWIDTH 7 0
BBX 3 18 2 0
BITMAP
E0
E0
E0
E0
E0
E0
E0
E0
E0
E0
E0
E0
E0
E0
E0
E0
E0
E0
ENDCHAR
STARTCHAR J
ENCODING 74
SWIDTH 551 0
DWIDTH 14 0
BBX 11 18 1 0
BITMAP
0060
0060
0060
0060
0060
0060
0060
0060
0060
0060
0060
0060
0060
C0E0
C0E0
E1C0
7F80
3F00
ENDCHAR
STARTCHAR K
ENCODING 75
SWIDTH 626 0
DWIDTH 16 0
BBX 14 18 2 0
BITMAP
C038
C070
C0E0
C1C0
C380
C700
C600
CE00
DE00
FE00
F700
E380
C1C0
C1C0
C0E0
C070
C038
C03C
ENDCHAR
STARTCHAR L
ENCODING 76
SWIDTH 538 0
DWIDTH 13 0
BBX 11 18 2 0
BITMAP
C000
C000
C000
C000
C000
C000
C000
C000
C000
C000
C000
C000
C000
C000
C000
C000
FFE0
FFE0
ENDCHAR
STARTCHAR M
ENCODING 77
SWIDTH 873 0
DWIDTH 22 0
BBX 18 18 2 0
BITMAP
E001C0
F003C0
F003C0
F007C0
D806C0
D806C0
DC0CC0
CC0DC0
CC1DC0
C619C0
C619C0
C731C0
C331C0
C371C0
C1E1C0
C1E1C0
C1C1C0
C0C1C0
ENDCHAR
STARTCHAR N
ENCODING 78
SWIDTH 712 0
DWIDTH 18 0
BBX 14 18 2 0
BITMAP
E00C
F00C
F00C
F80C
F80C
FC0C
EE0C
E60C
E70C
E38C
E18C
E1CC
E0EC
E06C
E07C
E03C
E01C
E01C
ENDCHAR
STARTCHAR O
ENCODING 79
SWIDTH 687 0
DWIDTH 17 0
BBX 15 18 1 0
BITMAP
07C0
1FF0
3838
301C
700C
600C
600E
E00E
E00E
E00E
E00E
600E
600C
700C
301C
3838
1FF0
07C0
ENDCHAR
STARTCHAR P
ENCODING 80
SWIDTH 630 0
DWIDTH 16 0
BBX 13 18 2 0
BITMAP
FFC0
FFE0
E070
E038
E038
E018
E018
E038
E070
FFE0
FFC0
E000
E000
E000
E000
E000
E000
E000
ENDCHAR
STARTCHAR Q
ENCODING 81
SWIDTH 687 0
DWIDTH 17 0
BBX 15 21 1 -3
BITMAP
07C0
1FF0
3838
7018
601C
600C
E00C
E00E
E00E
E00E
E00E
E00C
600C
601C
7018
3838
1FF0
07F0
003C
001E
0008
ENDCHAR
STARTCHAR R
ENCODING 82
SWIDTH 615 0
DWIDTH 15 0
BBX 13 18 2 0
BITMAP
FF80
FFC0
C0E0
C070
C070
C030
C070
C070
C0E0
FFC0
FF80
C180
C1C0
C0C0
C0E0
C060
C070
C038
ENDCHAR
STARTCHAR S
ENCODING 83
SWIDTH 593 0
DWIDTH 15 0
BBX 13 18 1 0
BITMAP
0F80
3FE0
7070
6038
6038
6000
7000
3800
1F80
07E0
00F0
0038
0038
E018
E038
7070
3FF0
0FC0
ENDCHAR
STARTCHAR T
ENCODING 84
SWIDTH 596 0
DWIDTH 15 0
BBX 13 18 1 0
BITMAP
FFF8
FFF8
0700
0700
0700
0700
0700
0700
0700
0700
0700
0700
0700
0700
0700
0700
0700
0700
ENDCHAR
STARTCHAR U
ENCODING 85
SWIDTH 648 0
DWIDTH 16 0
BBX 12 18 2 0
BITMAP
C030
C030
C030
C030
C030
C030
C030
C030
C030
C030
C030
C030
C030
C030
E070
70E0
7FE0
1F80
ENDCHAR
STARTCHAR V
ENCODING 86
SWIDTH 636 0
DWIDTH 16 0
BBX 16 18 0 0
BITMAP
E007
6006
700E
300C
300C
381C
1818
1818
1C38
0C30
0E70
0660
0660
07E0
03C0
03C0
03C0
0180
ENDCHAR
STARTCHAR W
ENCODING 87
SWIDTH 887 0
DWIDTH 22 0
BBX 21 18 1 0
BITMAP
C06038
C07030
E07030
60F070
60F070
60D860
71D860
319860
318CE0
318CC0
330CC0
3B0CC0
1B07C0
1E0780
1E0780
1E0380
0E0380
0C0300
ENDCHAR
STARTCHAR X
ENCODING 88
SWIDTH 626 0
DWIDTH 16 0
BBX 14 18 1 0
BITMAP
E01C
7038
7030
3870
18E0
1CC0
0FC0
0780
0780
0780
0F80
0FC0
1CE0
18E0
3870
7030
6038
E01C
ENDCHAR
STARTCHAR Y
ENCODING 89
SWIDTH 600 0
DWIDTH 15 0
BBX 15 18 0 0
BITMAP
E00E
701C
3018
3838
1830
1C70
0C60
0EE0
06C0
07C0
0380
0380
0380
0380
0380
0380
0380
0380
ENDCHAR
STARTCHAR Z
ENCODING 90
SWIDTH 598 0
DWIDTH 15 0
BBX 13 18 1 0
BITMAP
FFF8
FFF8
0070
0060
00E0
01C0
0180
0380
0700
0600
0E00
1C00
1800
3800
7000
6000
FFF8
FFF8
ENDCHAR
STARTCHAR bracketleft
ENCODING 91
SWIDTH 265 0
DWIDTH 7 0
BBX 4 24 2 -4
BITMAP
F0
F0
C0
C0
C0
C0
C0
C0
C0
C0
C0
C0
C0
C0
C0
C0
C0
C0
C0
C0
C0
C0
F0
F0
ENDCHAR
STARTCHAR backslash
ENCODING 92
SWIDTH 410 0
DWIDTH 10 0
BBX 10 20 0 -2
BITMAP
E000
6000
7000
3000
3000
1800
1800
1800
0C00
0C00
0E00
0600
0600
0700
0300
0300
0180
0180
01C0
00C0
ENDCHAR
STARTCHAR bracketright
ENCODING 93
SWIDTH 265 0
DWIDTH 7 0
BBX 5 24 0 -4
BITMAP
F8
F8
38
38
38
38
38
38
38
38
38
38
38
38
38
38
38
38
38
38
38
38
F8
F8
ENDCHAR
STARTCHAR asciicircum
ENCODING 94
SWIDTH 417 0
DWIDTH 10 0
BBX 8 9 1 9
BITMAP
18
18
3C
3C
66
66
66
C3
C3
ENDCHAR
STARTCHAR underscore
ENCODING 95
SWIDTH 451 0
DWIDTH 11 0
BBX 11 2 0 -2
BITMAP
FFE0
FFE0
ENDCHAR
STARTCHAR grave
ENCODING 96
SWIDTH 309 0
DWIDTH 8 0
BBX 5 4 1 15
BITMAP
E0
60
30
38
ENDCHAR
STARTCHAR a
ENCODING 97
SWIDTH 543 0
DWIDTH 14 0
BBX 10 13 2 0
BITMAP
3F00
7F80
E1C0
C0C0
00C0
3FC0
7FC0
E0C0
C0C0
C0C0
E3C0
FFC0
3CC0
ENDCHAR
STARTCHAR b
ENCODING 98
SWIDTH 561 0
DWIDTH 14 0
BBX 11 19 2 0
BITMAP
C000
C000
C000
C000
C000
C000
DF00
FF80
E1C0
C0C0
C0E0
C060
C060
C060
C0E0
C0C0
E1C0
FF80
DF00
ENDCHAR
STARTCHAR c
ENCODING 99
SWIDTH 523 0
DWIDTH 13 0
BBX 11 13 1 0
BITMAP
1F00
3FC0
70E0
6060
E060
C000
C000
C000
E000
6060
70E0
3FC0
1F00
ENDCHAR
STARTCHAR d
ENCODING 100
SWIDTH 563 0
DWIDTH 14 0
BBX 11 19 1 0
BITMAP
0060
0060
0060
0060
0060
0060
1F60
3FE0
70E0
6060
E060
C060
C060
C060
E060
6060
70E0
3FE0
1F60
ENDCHAR
STARTCHAR e
ENCODING 101
SWIDTH 529 0
DWIDTH 13 0
BBX 11 13 1 0
BITMAP
1F00
3FC0
70C0
6060
C060
FFE0
FFE0
C000
E000
E000
70E0
3FC0
1F80
ENDCHAR
STARTCHAR f
ENCODING 102
SWIDTH 347 0
DWIDTH 9 0
BBX 8 19 1 0
BITMAP
0F
1F
38
30
30
30
FE
FE
30
30
30
30
30
30
30
30
30
30
30
ENDCHAR
STARTCHAR g
ENCODING 103
SWIDTH 561 0
DWIDTH 14 0
BBX 11 18 1 -5
BITMAP
1F60
3FE0
70E0
6060
E060
C060
C060
C060
E060
6060
70E0
3FE0
1F60
0060
4060
60E0
3FC0
1F00
ENDCHAR
STARTCHAR h
ENCODING 104
SWIDTH 550 0
DWIDTH 14 0
BBX 10 19 2 0
BITMAP
C000
C000
C000
C000
C000
C000
CF00
FF80
F1C0
C0C0
C0C0
C0C0
C0C0
C0C0
C0C0
C0C0
C0C0
C0C0
C0C0
ENDCHAR
STARTCHAR i
ENCODING 105
SWIDTH 242 0
DWIDTH 6 0
BBX 2 18 2 0
BITMAP
C0
C0
C0
00
00
C0
C0
C0
C0
C0
C0
C0
C0
C0
C0
C0
C0
C0
ENDCHAR
STARTCHAR j
ENCODING 106
SWIDTH 238 0
DWIDTH 6 0
BBX 5 23 -1 -5
BITMAP
18
18
18
00
00
18
18
18
18
18
18
18
18
18
18
18
18
18
18
18
38
F8
F0
ENDCHAR
STARTCHAR k
ENCODING 107
SWIDTH 506 0
DWIDTH 13 0
BBX 11 19 2 0
BITMAP
C000
C000
C000
C000
C000
C000
C1C0
C380
C700
CE00
DC00
F800
FC00
EC00
C600
C700
C380
C1C0
C0E0
ENDCHAR
STARTCHAR l
ENCODING 108
SWIDTH 242 0
DWIDTH 6 0
BBX 2 19 2 0
BITMAP
C0
C0
C0
C0
C0
C0
C0
C0
C0
C0
C0
C0
C0
C0
C0
C0
C0
C0
C0
ENDCHAR
STARTCHAR m
ENCODING 109
SWIDTH 876 0
DWIDTH 22 0
BBX 18 13 2 0
BITMAP
DF1F00
FFBF80
E1E1C0
C0C0C0
C0C0C0
C0C0C0
C0C0C0
C0C0C0
C0C0C0
C0C0C0
C0C0C0
C0C0C0
C0C0C0
ENDCHAR
STARTCHAR n
ENCODING 110
SWIDTH 551 0
DWIDTH 14 0
BBX 10 13 2 0
BITMAP
CF00
FF80
F1C0
C0C0
C0C0
C0C0
C0C0
C0C0
C0C0
C0C0
C0C0
C0C0
C0C0
ENDCHAR
STARTCHAR o
ENCODING 111
SWIDTH 570 0
DWIDTH 14 0
BBX 12 13 1 0
BITMAP
1F80
3FC0
70E0
6060
E070
C030
C030
C030
E070
E060
70E0
3FC0
1F80
ENDCHAR
STARTCHAR p
ENCODING 112
SWIDTH 561 0
DWIDTH 14 0
BBX 11 18 2 -5
BITMAP
DF00
FF80
E1C0
C0C0
C0E0
C060
C060
C060
C0E0
C0C0
E1C0
FF80
DF00
C000
C000
C000
C000
C000
ENDCHAR
STARTCHAR q
ENCODING 113
SWIDTH 568 0
DWIDTH 14 0
BBX 11 18 1 -5
BITMAP
1F60
3FE0
70E0
E060
E060
C060
C060
C060
E060
E060
70E0
3FE0
1F60
0060
0060
0060
0060
0060
ENDCHAR
STARTCHAR r
ENCODING 114
SWIDTH 338 0
DWIDTH 8 0
BBX 7 13 1 0
BITMAP
EE
FE
F0
E0
E0
E0
E0
E0
E0
E0
E0
E0
E0
ENDCHAR
STARTCHAR s
ENCODING 115
SWIDTH 515 0
DWIDTH 13 0
BBX 11 13 1 0
BITMAP
1F00
3FC0
71C0
60E0
6000
7E00
1F80
03C0
00E0
E0E0
70C0
7FC0
1F00
ENDCHAR
STARTCHAR t
ENCODING 116
SWIDTH 326 0
DWIDTH 8 0
BBX 7 16 0 0
BITMAP
38
38
38
FE
FE
38
38
38
38
38
38
38
38
38
1E
0E
ENDCHAR
STARTCHAR u
ENCODING 117
SWIDTH 551 0
DWIDTH 14 0
BBX 10 13 2 0
BITMAP
C0C0
C0C0
C0C0
C0C0
C0C0
C0C0
C0C0
C0C0
C0C0
C0C0
E1C0
7FC0
3EC0
ENDCHAR
STARTCHAR v
ENCODING 118
SWIDTH 484 0
DWIDTH 12 0
BBX 12 13 0 0
BITMAP
E070
6060
70E0
30C0
30C0
39C0
1980
1980
1F80
0F00
0F00
0600
0600
ENDCHAR
STARTCHAR w
ENCODING 119
SWIDTH 751 0
DWIDTH 19 0
BBX 17 13 1 0
BITMAP
C1C180
C1C180
E1C380
634300
636300
636300
362600
363600
363600
343600
1C1C00
1C1C00
181C00
ENDCHAR
STARTCHAR x
ENCODING 120
SWIDTH 495 0
DWIDTH 12 0
BBX 12 13 0 0
BITMAP
7070
30E0
38C0
1980
0F80
0F00
0600
0F00
0F80
1980
38C0
30E0
E070
ENDCHAR
STARTCHAR y
ENCODING 121
SWIDTH 473 0
DWIDTH 12 0
BBX 12 18 0 -5
BITMAP
E070
6060
70E0
30C0
30C0
39C0
1980
1980
1F80
0F00
0F00
0700
0600
0600
0C00
0C00
7800
7000
ENDCHAR
STARTCHAR z
ENCODING 122
SWIDTH 495 0
DWIDTH 12 0
BBX 11 13 1 0
BITMAP
FFC0
FFC0
01C0
0380
0700
0600
0C00
1C00
3800
7000
6000
FFE0
FFE0
ENDCHAR
STARTCHAR braceleft
ENCODING 123
SWIDTH 338 0
DWIDTH 8 0
BBX 7 24 1 -4
BITMAP
06
0E
18
38
38
30
30
30
30
30
70
E0
E0
70
30
30
30
30
30
30
38
18
0E
06
ENDCHAR
STARTCHAR bar
ENCODING 124
SWIDTH 243 0
DWIDTH 6 0
BBX 2 21 2 -3
BITMAP
C0
C0
C0
C0
C0
C0
C0
C0
C0
C0
C0
C0
C0
C0
C0
C0
C0
C0
C0
C0
C0
ENDCHAR
STARTCHAR braceright
ENCODING 125
SWIDTH 338 0
DWIDTH 8 0
BBX 7 24 0 -4
BITMAP
C0
E0
30
30
38
18
18
18
18
18
1C
0E
0E
1C
18
18
18
18
18
38
30
30
E0
C0
ENDCHAR
STARTCHAR breve
ENCODING 728
SWIDTH 426 0
DWIDTH 11 0
BBX 7 4 2 15
BITMAP
C6
C6
FC
78
ENDCHAR
STARTCHAR dotaccent
ENCODING 729
SWIDTH 242 0
DWIDTH 6 0
BBX 2 3 2 15
BITMAP
C0
C0
C0
ENDCHAR
STARTCHAR ring
ENCODING 730
SWIDTH 334 0
DWIDTH 8 0
BBX 6 5 1 15
BITMAP
70
48
CC
C8
78
ENDCHAR
ENDFONT
