STARTFONT 2.1
FONT -FontForge-Roboto-Book-R-Normal--55-530-75-75-P-278-ISO10646-1
SIZE 53 75 75
FONTBOUNDINGBOX 50 59 -2 -13
COMMENT "Generated by fontforge, http://fontforge.sourceforge.net"
COMMENT "Copyright 2011 Google Inc. All Rights Reserved."
STARTPROPERTIES 39
FOUNDRY "FontForge"
FAMILY_NAME "Roboto"
WEIGHT_NAME "Book"
SLANT "R"
SETWIDTH_NAME "Normal"
ADD_STYLE_NAME ""
PIXEL_SIZE 55
POINT_SIZE 530
RESOLUTION_X 75
RESOLUTION_Y 75
SPACING "P"
AVERAGE_WIDTH 278
CHARSET_REGISTRY "ISO10646"
CHARSET_ENCODING "1"
FONTNAME_REGISTRY ""
CHARSET_COLLECTIONS "ISO10646-1"
FONT_NAME "Roboto-Regular"
FACE_NAME "Roboto"
COPYRIGHT "Copyright 2011 Google Inc. All Rights Reserved."
FONT_VERSION "2.137; 2017"
FONT_ASCENT 41
FONT_DESCENT 14
UNDERLINE_POSITION -5
UNDERLINE_THICKNESS 3
X_HEIGHT 28
CAP_HEIGHT 38
RAW_ASCENT 750
RAW_DESCENT 250
RELATIVE_WEIGHT 40
RELATIVE_SETWIDTH 50
SUPERSCRIPT_X 0
SUPERSCRIPT_Y 26
SUPERSCRIPT_SIZE 35
SUBSCRIPT_X 0
SUBSCRIPT_Y 7
SUBSCRIPT_SIZE 35
FIGURE_WIDTH 31
AVG_LOWERCASE_WIDTH 273
AVG_UPPERCASE_WIDTH 348
ENDPROPERTIES
CHARS 96
STARTCHAR exclam
ENCODING 33
SWIDTH 257 0
DWIDTH 14 0
BBX 6 39 4 0
BITMAP
FC
FC
7C
7C
7C
7C
7C
7C
7C
7C
7C
7C
7C
7C
7C
78
78
78
78
78
78
78
78
78
78
78
78
00
00
00
00
00
00
78
7C
FC
FC
7C
78
ENDCHAR
STARTCHAR quotedbl
ENCODING 34
SWIDTH 319 0
DWIDTH 18 0
BBX 11 13 4 28
BITMAP
E1E0
E1E0
E1E0
E1E0
E1E0
E1E0
E1C0
E1C0
E1C0
E1C0
E1C0
E1C0
E1C0
ENDCHAR
STARTCHAR numbersign
ENCODING 35
SWIDTH 615 0
DWIDTH 34 0
BBX 30 39 3 0
BITMAP
000F01E0
000F01E0
000E03C0
001E03C0
001E03C0
001E03C0
001E03C0
001C0380
003C0780
003C0780
003C0780
3FFFFFFC
3FFFFFFC
3FFFFFFC
3FFFFFFC
00780F00
00780F00
00700E00
00F01E00
00F01E00
00F01E00
00F01E00
00E01C00
01E03C00
FFFFFFF0
FFFFFFF0
FFFFFFF0
FFFFFFF0
03C07800
03C07800
03C07800
03C07800
03C07800
0380F000
0780F000
0780F000
0780F000
0780F000
0F01E000
ENDCHAR
STARTCHAR dollar
ENCODING 36
SWIDTH 561 0
DWIDTH 31 0
BBX 25 51 3 -5
BITMAP
001E0000
001E0000
001E0000
001E0000
001E0000
001E0000
007F8000
03FFE000
07FFF800
0FFFFC00
1FC1FE00
1F007E00
3E003F00
3E001F00
3E001F00
7C001F00
7C000F80
7C000F80
3E000000
3E000000
3F000000
3F800000
1FC00000
0FF00000
07FE0000
03FF8000
00FFE000
003FF800
0007FC00
0001FE00
00007F00
00003F00
00001F80
00000F80
F8000F80
F8000F80
F8000F80
F8000F80
7C001F80
7E001F00
7F003F00
3F80FE00
1FFFFC00
0FFFF800
07FFF000
00FF8000
001E0000
001E0000
001E0000
001E0000
001E0000
ENDCHAR
STARTCHAR percent
ENCODING 37
SWIDTH 732 0
DWIDTH 40 0
BBX 35 41 3 -1
BITMAP
07E0000000
1FF8000000
3FFC000000
7C3E000000
F81E004000
F00E00F000
F00F00F000
F00F01E000
F00F01C000
F00F03C000
F00F078000
F00F078000
F00F0F0000
F81E1E0000
7C3E1E0000
3FFC3C0000
1FF83C0000
07E0780000
0000F00000
0000F00000
0001E00000
0001E00000
0003C00000
000780FC00
000783FF00
000F07FF80
001E0F87C0
001E0F03C0
003C1E01E0
003C1E01E0
00781E01E0
00F01E01E0
00F01E01E0
01E01E01E0
01E01E01E0
03C01E01E0
00800F03C0
00000F87C0
000007FF80
000003FF00
000000FC00
ENDCHAR
STARTCHAR ampersand
ENCODING 38
SWIDTH 621 0
DWIDTH 34 0
BBX 31 41 3 -1
BITMAP
007F0000
01FFC000
03FFE000
07FFF000
0FC1F800
0F80F800
1F807C00
1F007C00
1F007C00
1F007C00
1F007C00
1F007800
1F80F800
0F81F000
0FC7F000
07EFE000
07FF8000
03FF0000
01FE0000
03FC0000
07FE0000
0FFF0000
1FFF00F8
3F1F80F8
7E0FC0F8
7C07E0F8
FC03F0F0
F803F1F0
F801F9F0
F800FDF0
F8007FE0
F8003FE0
F8003FC0
FC001FC0
7C001FC0
7E007FE0
3F81FFF0
1FFFFDF8
0FFFF8FC
07FFE07E
00FF0000
ENDCHAR
STARTCHAR quotesingle
ENCODING 39
SWIDTH 174 0
DWIDTH 10 0
BBX 4 13 3 28
BITMAP
F0
F0
F0
F0
F0
F0
F0
F0
E0
E0
E0
E0
E0
ENDCHAR
STARTCHAR parenleft
ENCODING 40
SWIDTH 341 0
DWIDTH 19 0
BBX 14 57 4 -13
BITMAP
0008
0018
007C
00FC
00F0
01E0
03E0
07C0
0780
0F80
0F00
1F00
1E00
3E00
3E00
3C00
7C00
7C00
7800
F800
F800
F800
F800
F800
F800
F800
F800
F800
F800
F800
F800
F800
F800
F800
F800
F800
F800
F800
7C00
7C00
7C00
3C00
3E00
3E00
1E00
1F00
0F00
0F80
0780
07C0
03E0
01E0
00F0
00F8
007C
0038
0008
ENDCHAR
STARTCHAR parenright
ENCODING 41
SWIDTH 347 0
DWIDTH 19 0
BBX 14 57 1 -13
BITMAP
4000
6000
F000
7800
3C00
3E00
1F00
0F00
0F80
07C0
07C0
03E0
03E0
01F0
01F0
01F0
00F8
00F8
00F8
00F8
0078
007C
007C
007C
007C
007C
007C
007C
007C
007C
007C
007C
007C
007C
007C
007C
0078
00F8
00F8
00F8
00F8
01F0
01F0
01F0
03E0
03E0
03C0
07C0
0780
0F00
1F00
1E00
3C00
7800
F000
6000
4000
ENDCHAR
STARTCHAR asterisk
ENCODING 42
SWIDTH 430 0
DWIDTH 24 0
BBX 22 22 1 17
BITMAP
007800
007800
007800
007800
007800
007800
407808
787878
FF7BF8
FFFFFC
7FFFF8
0FFF80
00FC00
01FC00
03FE00
03DF00
078F80
0F8780
1F07C0
1F03E0
2E03C0
040180
ENDCHAR
STARTCHAR plus
ENCODING 43
SWIDTH 566 0
DWIDTH 31 0
BBX 27 27 2 5
BITMAP
001F0000
001F0000
001F0000
001F0000
001F0000
001F0000
001F0000
001F0000
001F0000
001F0000
001F0000
FFFFFFE0
FFFFFFE0
FFFFFFE0
FFFFFFE0
001F0000
001F0000
001F0000
001F0000
001F0000
001F0000
001F0000
001F0000
001F0000
001F0000
001F0000
001F0000
ENDCHAR
STARTCHAR comma
ENCODING 44
SWIDTH 196 0
DWIDTH 11 0
BBX 7 14 1 -8
BITMAP
3E
3E
3E
3E
3E
3E
3E
3E
3C
7C
78
F8
F0
20
ENDCHAR
STARTCHAR hyphen
ENCODING 45
SWIDTH 275 0
DWIDTH 15 0
BBX 13 4 1 15
BITMAP
FFF8
FFF8
FFF8
FFF8
ENDCHAR
STARTCHAR period
ENCODING 46
SWIDTH 263 0
DWIDTH 14 0
BBX 6 6 4 0
BITMAP
78
FC
FC
FC
FC
78
ENDCHAR
STARTCHAR slash
ENCODING 47
SWIDTH 412 0
DWIDTH 23 0
BBX 21 42 0 -3
BITMAP
000078
0000F8
0000F0
0001F0
0001E0
0001E0
0003E0
0003C0
0007C0
000780
000780
000F80
000F00
000F00
001E00
001E00
003E00
003C00
003C00
007C00
007800
00F800
00F000
00F000
01F000
01E000
03E000
03C000
03C000
07C000
078000
078000
0F0000
0F0000
1F0000
1E0000
1E0000
3E0000
3C0000
7C0000
780000
F80000
ENDCHAR
STARTCHAR zero
ENCODING 48
SWIDTH 561 0
DWIDTH 31 0
BBX 25 41 3 -1
BITMAP
007F0000
03FFE000
07FFF000
0FFFF800
1FC1FC00
3F007E00
3E003E00
7E003E00
7C001F00
7C001F00
7C001F00
F8001F00
F8000F00
F8000F80
F8000F80
F8000F80
F8000F80
F8000F80
F8000F80
F8000F80
F8000F80
F8000F80
F8000F80
F8000F80
F8000F80
F8000F80
F8000F80
F8000F80
F8000F00
F8001F00
7C001F00
7C001F00
7C001F00
3E003E00
3E003E00
3F007E00
1FC1FC00
0FFFF800
07FFF000
03FFE000
007F0000
ENDCHAR
STARTCHAR one
ENCODING 49
SWIDTH 561 0
DWIDTH 31 0
BBX 15 39 5 0
BITMAP
000E
003E
01FE
0FFE
7FFE
FFFE
FE3E
F03E
803E
003E
003E
003E
003E
003E
003E
003E
003E
003E
003E
003E
003E
003E
003E
003E
003E
003E
003E
003E
003E
003E
003E
003E
003E
003E
003E
003E
003E
003E
003E
ENDCHAR
STARTCHAR two
ENCODING 50
SWIDTH 561 0
DWIDTH 31 0
BBX 27 40 2 0
BITMAP
007F8000
01FFF000
07FFF800
0FFFFE00
1FC0FE00
3F003F00
3E001F00
7C001F80
7C000F80
7C000F80
7C000F80
F8000F80
00000F80
00000F80
00001F00
00001F00
00003E00
00003E00
00007C00
0000FC00
0001F800
0001F000
0003E000
0007E000
000FC000
001F8000
003F0000
007E0000
00FC0000
01F80000
01F00000
03E00000
07C00000
0FC00000
1F800000
3F000000
7FFFFFE0
7FFFFFE0
7FFFFFE0
7FFFFFE0
ENDCHAR
STARTCHAR three
ENCODING 51
SWIDTH 561 0
DWIDTH 31 0
BBX 24 41 3 -1
BITMAP
00FF00
03FFE0
0FFFF0
1FFFF8
3F81FC
7E007C
7C003E
FC003E
F8003E
F8001F
F8001F
00001F
00001F
00003E
00003E
00007E
0000FC
0003F8
01FFF0
01FFC0
01FFE0
01FFF8
0001FC
00007E
00003E
00003F
00001F
00001F
00001F
00001F
F8001F
F8001F
F8001F
F8003F
FC003E
7E007E
7F81FC
3FFFF8
0FFFF0
07FFE0
00FF00
ENDCHAR
STARTCHAR four
ENCODING 52
SWIDTH 561 0
DWIDTH 31 0
BBX 29 39 1 0
BITMAP
00003E00
00007E00
0000FE00
0000FE00
0001FE00
0003FE00
0003FE00
0007FE00
000FBE00
000FBE00
001F3E00
003E3E00
003E3E00
007C3E00
00783E00
00F83E00
01F03E00
01F03E00
03E03E00
07C03E00
07C03E00
0F803E00
1F003E00
1F003E00
3E003E00
7C003E00
7FFFFFF8
FFFFFFF8
FFFFFFF8
FFFFFFF8
00003E00
00003E00
00003E00
00003E00
00003E00
00003E00
00003E00
00003E00
00003E00
ENDCHAR
STARTCHAR five
ENCODING 53
SWIDTH 561 0
DWIDTH 31 0
BBX 25 40 4 -1
BITMAP
1FFFFF00
1FFFFF00
1FFFFF00
1FFFFF00
1F000000
1F000000
1E000000
1E000000
1E000000
1E000000
3E000000
3E000000
3E000000
3E000000
3E7F8000
3FFFE000
3FFFF800
3FFFFC00
3F81FC00
3E007E00
0C003E00
00003F00
00001F00
00001F00
00001F80
00000F80
00000F80
00000F80
00000F80
F8001F80
F8001F00
78001F00
7C003F00
7C003E00
3E007E00
3F81FC00
1FFFF800
0FFFF000
03FFE000
00FF8000
ENDCHAR
STARTCHAR six
ENCODING 54
SWIDTH 561 0
DWIDTH 31 0
BBX 24 40 4 -1
BITMAP
0007E0
003FE0
00FFE0
01FFE0
07FC00
0FE000
0FC000
1F8000
3F0000
3E0000
7E0000
7C0000
7C0000
780000
F87F80
F9FFE0
FBFFF0
FFFFF8
FF81FC
FF00FE
FC007E
FC003E
F8001F
F8001F
F8001F
F8001F
F8001F
F8001F
F8001F
F8001F
F8001F
7C001F
7C003E
3E007E
3F00FC
1FC1FC
0FFFF8
07FFF0
03FFC0
00FF00
ENDCHAR
STARTCHAR seven
ENCODING 55
SWIDTH 561 0
DWIDTH 31 0
BBX 27 39 2 0
BITMAP
FFFFFFE0
FFFFFFE0
FFFFFFE0
FFFFFFC0
000007C0
00000780
00000F80
00000F00
00001F00
00001E00
00003E00
00003E00
00007C00
00007C00
0000F800
0000F800
0001F000
0001F000
0001E000
0003E000
0003E000
0007C000
0007C000
000F8000
000F8000
001F0000
001F0000
003E0000
003E0000
007E0000
007C0000
007C0000
00F80000
00F80000
01F00000
01F00000
03E00000
03E00000
07E00000
ENDCHAR
STARTCHAR eight
ENCODING 56
SWIDTH 561 0
DWIDTH 31 0
BBX 25 41 3 -1
BITMAP
007F0000
03FFE000
07FFF000
0FFFF800
1FC1FC00
3F007E00
3E003E00
7E003F00
7C001F00
7C001F00
7C001F00
7C001F00
7C001F00
7C001F00
3E003E00
3E003E00
1F007C00
1FC1FC00
0FFFF800
03FFE000
07FFE000
0FFFF800
1F81FC00
3F007E00
7E003E00
7C001F00
FC001F00
F8000F80
F8000F80
F8000F80
F8000F80
F8000F80
F8001F80
7C001F00
7C003F00
7E007E00
3F80FE00
1FFFFC00
0FFFF800
03FFE000
00FF8000
ENDCHAR
STARTCHAR nine
ENCODING 57
SWIDTH 561 0
DWIDTH 31 0
BBX 24 40 3 0
BITMAP
00FE00
03FFC0
0FFFE0
1FFFF0
3F83F8
3F00FC
7E007C
7C007E
F8003E
F8003E
F8001F
F8001F
F8001F
F8001F
F8001F
F8001F
F8001F
F8001F
F8001F
7C003F
7E007F
3F00FF
3F83FF
1FFFFF
0FFFDF
07FF1F
01FC1E
00001E
00003E
00003E
00007C
00007C
0000F8
0001F8
0007F0
003FE0
07FFC0
07FF00
07FC00
07E000
ENDCHAR
STARTCHAR colon
ENCODING 58
SWIDTH 242 0
DWIDTH 13 0
BBX 6 30 4 0
BITMAP
78
F8
FC
FC
F8
78
00
00
00
00
00
00
00
00
00
00
00
00
00
00
00
00
00
00
78
F8
FC
FC
F8
78
ENDCHAR
STARTCHAR semicolon
ENCODING 59
SWIDTH 211 0
DWIDTH 12 0
BBX 8 38 1 -8
BITMAP
1E
3F
3F
3F
3F
1E
00
00
00
00
00
00
00
00
00
00
00
00
00
00
00
00
00
00
1F
1F
1F
1F
1F
1E
1E
3E
3E
3C
7C
F8
70
30
ENDCHAR
STARTCHAR less
ENCODING 60
SWIDTH 508 0
DWIDTH 28 0
BBX 22 24 2 5
BITMAP
000004
00001C
0000FC
0003FC
000FFC
003FF8
00FFE0
07FF00
1FFC00
7FE000
FF8000
FC0000
FC0000
FF8000
7FE000
1FFC00
03FF00
00FFE0
003FF8
000FFC
0003FC
0000FC
00001C
000004
ENDCHAR
STARTCHAR equal
ENCODING 61
SWIDTH 548 0
DWIDTH 30 0
BBX 22 15 4 11
BITMAP
FFFFFC
FFFFFC
FFFFFC
FFFFFC
000000
000000
000000
000000
000000
000000
000000
FFFFFC
FFFFFC
FFFFFC
FFFFFC
ENDCHAR
STARTCHAR greater
ENCODING 62
SWIDTH 522 0
DWIDTH 29 0
BBX 23 24 4 6
BITMAP
800000
E00000
F80000
FF0000
FFC000
7FF000
1FFC00
03FF80
00FFE0
001FF8
0003FE
0000FE
0000FE
0007FE
001FF8
00FFE0
03FF80
1FFC00
7FF000
FFC000
FF0000
F80000
E00000
800000
ENDCHAR
STARTCHAR question
ENCODING 63
SWIDTH 472 0
DWIDTH 26 0
BBX 22 40 2 0
BITMAP
01FE00
07FF80
1FFFE0
3FFFF0
7F03F0
7E01F8
7C00F8
F800FC
F8007C
F8007C
00007C
00007C
0000FC
0000F8
0001F8
0001F0
0003F0
0007E0
000FC0
001F80
003F00
007E00
007C00
00FC00
00F800
00F800
00F800
00F800
000000
000000
000000
000000
000000
000000
007000
00F800
01F800
01F800
00F800
00F000
ENDCHAR
STARTCHAR at
ENCODING 64
SWIDTH 897 0
DWIDTH 49 0
BBX 44 51 3 -13
BITMAP
00003FF00000
0001FFFF0000
0007FFFFC000
001FE00FE000
003F0001F800
007C00007C00
00F000003E00
01E000001E00
03C000000F00
078000000780
078000000780
0F00000003C0
1E0007E003C0
1E001FF801C0
3C007FFE01E0
3C00FC3E01E0
3C00F01E00E0
7801E01E00E0
7803E01E00E0
7803C01E00F0
7807C01E00F0
7007801E00F0
F007801E00F0
F00F803C00F0
F00F803C00F0
F00F003C00F0
F00F003C00F0
F00F003C00E0
F00F003C00E0
F00F003C00E0
F00F003C01E0
F00F007C01C0
F00F007C01C0
780F80FC03C0
780781FC0780
7807C3DE0700
7803FF9F9E00
3C01FE0FFC00
3C00FC03F000
3E0000000000
1E0000000000
1F0000000000
0F0000000000
078000000000
07C000000000
03F000000000
01FC00040000
007F807E0000
003FFFFE0000
000FFFFC0000
0000FFC00000
ENDCHAR
STARTCHAR A
ENCODING 65
SWIDTH 652 0
DWIDTH 36 0
BBX 34 39 1 0
BITMAP
0001E00000
0003F00000
0003F00000
0007F80000
0007F80000
0007F80000
000FFC0000
000FFC0000
001F3E0000
001F3E0000
001F3E0000
003E1F0000
003E1F0000
003C0F0000
007C0F8000
007C0F8000
00F807C000
00F807C000
00F807C000
01F003E000
01F003E000
03F003F000
03E001F000
03E001F000
07E001F800
07FFFFF800
07FFFFF800
0FFFFFFC00
0FFFFFFC00
1F80007E00
1F00003E00
1F00003E00
3F00003F00
3E00001F00
3E00001F80
7C00000F80
7C00000F80
FC00000FC0
F8000007C0
ENDCHAR
STARTCHAR B
ENCODING 66
SWIDTH 622 0
DWIDTH 34 0
BBX 26 39 5 0
BITMAP
FFFF8000
FFFFF000
FFFFFC00
FFFFFE00
F800FF00
F8003F00
F8001F00
F8001F80
F8000F80
F8000F80
F8000F80
F8000F80
F8000F80
F8001F80
F8001F00
F8003F00
F800FE00
FFFFFC00
FFFFF000
FFFFF800
FFFFFE00
F8007F00
F8001F80
F8000F80
F8000FC0
F80007C0
F80007C0
F80007C0
F80007C0
F80007C0
F80007C0
F8000FC0
F8001F80
F8003F80
F8007F00
FFFFFE00
FFFFFC00
FFFFF000
FFFFC000
ENDCHAR
STARTCHAR C
ENCODING 67
SWIDTH 650 0
DWIDTH 36 0
BBX 30 41 3 -1
BITMAP
000FF000
007FFE00
01FFFF80
03FFFFC0
07F81FE0
0FE007F0
1F8001F0
1F0001F8
3F0000F8
3E0000FC
7E00007C
7C00007C
7C00007C
7C000000
FC000000
FC000000
F8000000
F8000000
F8000000
F8000000
F8000000
F8000000
F8000000
F8000000
F8000000
FC000000
FC000000
7C000000
7C00007C
7C00007C
7E00007C
3E0000FC
3F0000F8
1F0001F8
1F8001F0
0FC007F0
07F01FE0
03FFFFC0
01FFFF80
007FFE00
001FF000
ENDCHAR
STARTCHAR D
ENCODING 68
SWIDTH 655 0
DWIDTH 36 0
BBX 28 39 5 0
BITMAP
FFFE0000
FFFFC000
FFFFF000
FFFFF800
F803FE00
F8007F00
F8003F00
F8001F80
F8000FC0
F80007C0
F80007C0
F80003E0
F80003E0
F80003E0
F80003F0
F80001F0
F80001F0
F80001F0
F80001F0
F80001F0
F80001F0
F80001F0
F80001F0
F80001F0
F80003F0
F80003E0
F80003E0
F80003E0
F80007C0
F80007C0
F8000FC0
F8001F80
F8003F00
F8007F00
F803FE00
FFFFF800
FFFFF000
FFFFC000
FFFE0000
ENDCHAR
STARTCHAR E
ENCODING 69
SWIDTH 568 0
DWIDTH 31 0
BBX 24 39 5 0
BITMAP
FFFFFF
FFFFFF
FFFFFF
FFFFFF
F80000
F80000
F80000
F80000
F80000
F80000
F80000
F80000
F80000
F80000
F80000
F80000
F80000
FFFFFC
FFFFFC
FFFFFC
FFFFFC
F80000
F80000
F80000
F80000
F80000
F80000
F80000
F80000
F80000
F80000
F80000
F80000
F80000
F80000
FFFFFF
FFFFFF
FFFFFF
FFFFFF
ENDCHAR
STARTCHAR F
ENCODING 70
SWIDTH 552 0
DWIDTH 30 0
BBX 24 39 5 0
BITMAP
FFFFFF
FFFFFF
FFFFFF
FFFFFF
F80000
F80000
F80000
F80000
F80000
F80000
F80000
F80000
F80000
F80000
F80000
F80000
F80000
F80000
FFFFF8
FFFFF8
FFFFF8
FFFFF8
F80000
F80000
F80000
F80000
F80000
F80000
F80000
F80000
F80000
F80000
F80000
F80000
F80000
F80000
F80000
F80000
F80000
ENDCHAR
STARTCHAR G
ENCODING 71
SWIDTH 681 0
DWIDTH 37 0
BBX 30 41 3 -1
BITMAP
000FF000
007FFE00
01FFFF80
03FFFFC0
07F81FE0
0FC003F0
1F8001F8
1F0000F8
3F0000FC
3E00007C
7E00007C
7C00007C
7C000000
7C000000
7C000000
FC000000
FC000000
F8000000
F8000000
F8000000
F8000000
F800FFFC
F800FFFC
F800FFFC
FC00FFFC
FC00007C
7C00007C
7C00007C
7C00007C
7E00007C
3E00007C
3F00007C
3F00007C
1F80007C
0FC0007C
0FE000FC
07F807F8
03FFFFF0
00FFFFE0
007FFF80
000FFC00
ENDCHAR
STARTCHAR H
ENCODING 72
SWIDTH 712 0
DWIDTH 39 0
BBX 30 39 5 0
BITMAP
F80000FC
F80000FC
F80000FC
F80000FC
F80000FC
F80000FC
F80000FC
F80000FC
F80000FC
F80000FC
F80000FC
F80000FC
F80000FC
F80000FC
F80000FC
F80000FC
F80000FC
FFFFFFFC
FFFFFFFC
FFFFFFFC
FFFFFFFC
F80000FC
F80000FC
F80000FC
F80000FC
F80000FC
F80000FC
F80000FC
F80000FC
F80000FC
F80000FC
F80000FC
F80000FC
F80000FC
F80000FC
F80000FC
F80000FC
F80000FC
F80000FC
ENDCHAR
STARTCHAR I
ENCODING 73
SWIDTH 271 0
DWIDTH 15 0
BBX 5 39 5 0
BITMAP
F8
F8
F8
F8
F8
F8
F8
F8
F8
F8
F8
F8
F8
F8
F8
F8
F8
F8
F8
F8
F8
F8
F8
F8
F8
F8
F8
F8
F8
F8
F8
F8
F8
F8
F8
F8
F8
F8
F8
ENDCHAR
STARTCHAR J
ENCODING 74
SWIDTH 551 0
DWIDTH 30 0
BBX 25 40 1 -1
BITMAP
00000F80
00000F80
00000F80
00000F80
00000F80
00000F80
00000F80
00000F80
00000F80
00000F80
00000F80
00000F80
00000F80
00000F80
00000F80
00000F80
00000F80
00000F80
00000F80
00000F80
00000F80
00000F80
00000F80
00000F80
00000F80
00000F80
00000F80
00000F80
00000F80
FC000F80
7C000F80
7C001F80
7C001F00
7E003F00
3F007F00
3FC0FE00
1FFFFC00
0FFFF800
03FFE000
00FF8000
ENDCHAR
STARTCHAR K
ENCODING 75
SWIDTH 626 0
DWIDTH 34 0
BBX 30 39 5 0
BITMAP
F80003F0
F80007E0
F8000FC0
F8001F80
F8003F00
F8007E00
F800FC00
F801FC00
F803F800
F807F000
F807E000
F80FC000
F81F8000
F83F0000
F87E0000
F8FC0000
F9FC0000
FBF80000
FFFC0000
FFFE0000
FFFE0000
FFBF0000
FF1F8000
FE1FC000
FC0FC000
F807E000
F803F000
F801F800
F801FC00
F800FC00
F8007E00
F8003F00
F8003F80
F8001F80
F8000FC0
F80007E0
F80007F0
F80003F0
F80001FC
ENDCHAR
STARTCHAR L
ENCODING 76
SWIDTH 538 0
DWIDTH 30 0
BBX 23 39 5 0
BITMAP
F80000
F80000
F80000
F80000
F80000
F80000
F80000
F80000
F80000
F80000
F80000
F80000
F80000
F80000
F80000
F80000
F80000
F80000
F80000
F80000
F80000
F80000
F80000
F80000
F80000
F80000
F80000
F80000
F80000
F80000
F80000
F80000
F80000
F80000
F80000
FFFFFE
FFFFFE
FFFFFE
FFFFFE
ENDCHAR
STARTCHAR M
ENCODING 77
SWIDTH 873 0
DWIDTH 48 0
BBX 38 39 5 0
BITMAP
FC000000FC
FE000001FC
FE000001FC
FF000003FC
FF000003FC
FF000003FC
FF800007FC
FF800007FC
F7C0000FBC
F7C0000FBC
F7C0000FBC
F3E0001F3C
F3E0001F3C
F1F0003E3C
F1F0003E3C
F1F0003E3C
F0F8007C3C
F0F8007C7C
F87C00F87C
F87C00F87C
F87C00F07C
F83E01F07C
F83E01F07C
F81F03E07C
F81F03E07C
F80F03C07C
F80F87C07C
F80F87C07C
F807CF807C
F807CF807C
F803DF007C
F803FF007C
F803FF007C
F801FE007C
F801FE007C
F800FC007C
F800FC007C
F800FC007C
F80078007C
ENDCHAR
STARTCHAR N
ENCODING 78
SWIDTH 712 0
DWIDTH 39 0
BBX 30 39 4 0
BITMAP
FC00007C
FE00007C
FE00007C
FF00007C
FF80007C
FF80007C
FFC0007C
FFC0007C
FFE0007C
FFF0007C
FDF0007C
FDF8007C
FCFC007C
FC7C007C
FC7E007C
FC3F007C
FC3F007C
FC1F807C
FC0FC07C
FC0FC07C
FC07E07C
FC03F07C
FC03F07C
FC01F87C
FC00FC7C
FC00FC7C
FC007E7C
FC003F7C
FC003F7C
FC001FFC
FC000FFC
FC000FFC
FC0007FC
FC0003FC
FC0003FC
FC0001FC
FC0000FC
FC0000FC
FC00007C
ENDCHAR
STARTCHAR O
ENCODING 79
SWIDTH 687 0
DWIDTH 38 0
BBX 32 41 3 -1
BITMAP
000FF000
007FFE00
01FFFF00
03FFFFC0
07F81FE0
0FE007F0
0F8003F0
1F8001F8
3F0000F8
3E00007C
3E00007C
7C00007E
7C00003E
7C00003E
7C00003E
FC00003E
F800003E
F800003F
F800003F
F800003F
F800003F
F800003F
F800003F
F800003F
F800003F
F800003E
FC00003E
7C00003E
7C00003E
7C00007E
3E00007C
3E00007C
3F0000F8
1F8001F8
0F8003F0
0FE007F0
07F81FE0
03FFFFC0
01FFFF00
007FFE00
000FF000
ENDCHAR
STARTCHAR P
ENCODING 80
SWIDTH 630 0
DWIDTH 35 0
BBX 28 39 5 0
BITMAP
FFFFE000
FFFFFC00
FFFFFE00
FFFFFF00
F8007F80
F8000FC0
F80007E0
F80007E0
F80003E0
F80003F0
F80001F0
F80001F0
F80001F0
F80001F0
F80003F0
F80003E0
F80003E0
F80007E0
F8000FC0
F8003FC0
FFFFFF80
FFFFFE00
FFFFFC00
FFFFE000
F8000000
F8000000
F8000000
F8000000
F8000000
F8000000
F8000000
F8000000
F8000000
F8000000
F8000000
F8000000
F8000000
F8000000
F8000000
ENDCHAR
STARTCHAR Q
ENCODING 81
SWIDTH 687 0
DWIDTH 38 0
BBX 32 47 3 -7
BITMAP
000FF000
007FFE00
01FFFF00
03FFFFC0
07F01FE0
0FC007E0
1F8003F0
1F0001F8
3F0000F8
3E0000FC
7E00007C
7C00007C
7C00003E
7C00003E
FC00003E
F800003E
F800003E
F800003E
F800003E
F800003F
F800003F
F800003F
F800003E
F800003E
F800003E
F800003E
FC00003E
7C00003E
7C00003E
7C00007E
7E00007C
3E0000FC
3F0000F8
1F0001F8
1F8003F0
0FE007F0
07F81FE0
03FFFFC0
01FFFF80
007FFFC0
000FFFE0
000007F8
000003FC
000000FE
0000007F
0000003C
00000018
ENDCHAR
STARTCHAR R
ENCODING 82
SWIDTH 615 0
DWIDTH 34 0
BBX 28 39 5 0
BITMAP
FFFF8000
FFFFF000
FFFFFC00
FFFFFE00
F800FF00
F8003F80
F8001F80
F8000FC0
F80007C0
F80007C0
F80007C0
F80007C0
F80007C0
F80007C0
F80007C0
F8000FC0
F8001F80
F8003F80
F800FF00
FFFFFE00
FFFFFC00
FFFFF000
FFFFE000
F803F000
F801F000
F801F800
F800F800
F800FC00
F8007C00
F8007E00
F8003F00
F8003F00
F8001F80
F8000F80
F8000FC0
F80007C0
F80007E0
F80003E0
F80003F0
ENDCHAR
STARTCHAR S
ENCODING 83
SWIDTH 593 0
DWIDTH 33 0
BBX 29 41 2 -1
BITMAP
001FE000
00FFFC00
03FFFF00
07FFFF80
0FE03FC0
1F800FE0
1F0003E0
3F0003F0
3E0001F0
3E0001F0
3E0001F8
3E0001F8
3E000000
3E000000
3F000000
1F800000
1FC00000
0FF00000
07FE0000
01FFC000
00FFF800
001FFE00
0003FF00
00007FC0
00001FE0
000007E0
000003F0
000001F0
000001F8
FC0001F8
FC0000F8
7C0001F8
7C0001F8
7E0001F0
3F0003F0
3F8007E0
1FE01FE0
0FFFFFC0
03FFFF80
00FFFE00
001FF000
ENDCHAR
STARTCHAR T
ENCODING 84
SWIDTH 596 0
DWIDTH 33 0
BBX 31 39 1 0
BITMAP
FFFFFFFE
FFFFFFFE
FFFFFFFE
FFFFFFFE
0007C000
0007C000
0007C000
0007C000
0007C000
0007C000
0007C000
0007C000
0007C000
0007C000
0007C000
0007C000
0007C000
0007C000
0007C000
0007C000
0007C000
0007C000
0007C000
0007C000
0007C000
0007C000
0007C000
0007C000
0007C000
0007C000
0007C000
0007C000
0007C000
0007C000
0007C000
0007C000
0007C000
0007C000
0007C000
ENDCHAR
STARTCHAR U
ENCODING 85
SWIDTH 648 0
DWIDTH 36 0
BBX 28 40 4 -1
BITMAP
F80001F0
F80001F0
F80001F0
F80001F0
F80001F0
F80001F0
F80001F0
F80001F0
F80001F0
F80001F0
F80001F0
F80001F0
F80001F0
F80001F0
F80001F0
F80001F0
F80001F0
F80001F0
F80001F0
F80001F0
F80001F0
F80001F0
F80001F0
F80001F0
F80001F0
F80001F0
F80001F0
F80001F0
F80001F0
F80001F0
FC0001F0
7C0003E0
7C0003E0
7E0007E0
3F000FC0
1FE03F80
0FFFFF00
07FFFE00
01FFF800
007FC000
ENDCHAR
STARTCHAR V
ENCODING 86
SWIDTH 636 0
DWIDTH 35 0
BBX 33 39 1 0
BITMAP
FC00001F80
FC00001F80
7C00001F00
7E00003F00
7E00003F00
3E00003E00
3F00007E00
1F00007E00
1F00007C00
1F8000FC00
0F8000F800
0F8000F800
0FC001F800
07C001F000
07C001F000
03E003F000
03E003E000
03E003E000
01F007C000
01F007C000
01F007C000
00F80F8000
00F80F8000
00F81F8000
007C1F0000
007C1F0000
003E3E0000
003E3E0000
003E3E0000
001F7C0000
001F7C0000
001F7C0000
000FF80000
000FF80000
0007F00000
0007F00000
0007F00000
0003E00000
0003E00000
ENDCHAR
STARTCHAR W
ENCODING 87
SWIDTH 887 0
DWIDTH 49 0
BBX 46 39 2 0
BITMAP
F8000F8000FC
F8000F8000F8
F8000FC000F8
FC000FC000F8
7C001FC001F8
7C001FC001F0
7C001FE001F0
7E003FE001F0
3E003FE003F0
3E003DF003E0
3E003DF003E0
3E007CF003E0
1F007CF003E0
1F0078F807C0
1F00F8F807C0
1F00F87807C0
0F80F07807C0
0F80F07C0F80
0F81F03C0F80
0F81F03C0F80
07C1E03E0F80
07C3E03E0F00
07C3E01E1F00
07C3C01E1F00
03C3C01F1F00
03E7C00F1E00
03E7800F3E00
03E7800FBE00
01EF800FBE00
01EF8007BC00
01FF0007BC00
01FF0007BC00
00FF0003FC00
00FE0003F800
00FE0003F800
00FE0003F800
00FE0001F800
007C0001F800
007C0001F000
ENDCHAR
STARTCHAR X
ENCODING 88
SWIDTH 626 0
DWIDTH 34 0
BBX 31 39 2 0
BITMAP
FC0000FE
7E0000FC
7E0001F8
3F0003F8
1F8003F0
1F8007E0
0FC007E0
07E00FC0
07E01F80
03F01F80
01F83F00
01F87E00
00FC7E00
00FCFC00
007EFC00
003FF800
003FF000
001FF000
000FE000
000FC000
001FE000
001FF000
003FF000
003FF800
007EFC00
00FCFC00
00FC7E00
01F83F00
03F03F00
03F01F80
07E00FC0
0FC00FC0
0FC007E0
1F8007F0
3F8003F0
3F0001F8
7E0001F8
FE0000FC
FC00007E
ENDCHAR
STARTCHAR Y
ENCODING 89
SWIDTH 600 0
DWIDTH 33 0
BBX 33 39 0 0
BITMAP
FE00003F80
7E00003F00
3F00007E00
3F00007E00
1F8000FC00
1F8000F800
0FC001F800
07C001F000
07E003F000
03E003E000
03F007E000
01F007C000
01F80FC000
00F80F8000
00FC1F8000
007C1F0000
007E3E0000
003E3E0000
001F7C0000
001F7C0000
000FF80000
000FF80000
0007F00000
0007F00000
0003E00000
0003E00000
0003E00000
0003E00000
0003E00000
0003E00000
0003E00000
0003E00000
0003E00000
0003E00000
0003E00000
0003E00000
0003E00000
0003E00000
0003E00000
ENDCHAR
STARTCHAR Z
ENCODING 90
SWIDTH 598 0
DWIDTH 33 0
BBX 29 39 2 0
BITMAP
7FFFFFF0
7FFFFFF0
7FFFFFF0
7FFFFFF0
000007E0
000007E0
00000FC0
00001F80
00001F80
00003F00
00007E00
00007E00
0000FC00
0001F800
0001F000
0003F000
0007E000
000FC000
000FC000
001F8000
003F0000
003F0000
007E0000
00FC0000
00FC0000
01F80000
03F00000
03F00000
07E00000
0FC00000
0FC00000
1F800000
3F000000
3E000000
7E000000
FFFFFFF8
FFFFFFF8
FFFFFFF8
FFFFFFF8
ENDCHAR
STARTCHAR bracketleft
ENCODING 91
SWIDTH 265 0
DWIDTH 15 0
BBX 10 53 4 -8
BITMAP
FFC0
FFC0
FFC0
FFC0
F800
F800
F800
F800
F800
F800
F800
F800
F800
F800
F800
F800
F800
F800
F800
F800
F800
F800
F800
F800
F800
F800
F800
F800
F800
F800
F800
F800
F800
F800
F800
F800
F800
F800
F800
F800
F800
F800
F800
F800
F800
F800
F800
F800
F800
FFC0
FFC0
FFC0
FFC0
ENDCHAR
STARTCHAR backslash
ENCODING 92
SWIDTH 410 0
DWIDTH 23 0
BBX 21 42 1 -3
BITMAP
F80000
780000
7C0000
7C0000
3E0000
3E0000
1E0000
1F0000
1F0000
0F0000
0F8000
078000
07C000
07C000
03C000
03E000
03E000
01F000
01F000
00F000
00F800
00F800
007C00
007C00
003C00
003E00
003E00
001E00
001F00
000F00
000F80
000F80
000780
0007C0
0007C0
0003E0
0003E0
0001E0
0001F0
0001F0
0000F8
0000F8
ENDCHAR
STARTCHAR bracketright
ENCODING 93
SWIDTH 265 0
DWIDTH 15 0
BBX 10 53 0 -8
BITMAP
FFC0
FFC0
FFC0
FFC0
07C0
07C0
07C0
07C0
07C0
07C0
07C0
07C0
07C0
07C0
07C0
07C0
07C0
07C0
07C0
07C0
07C0
07C0
07C0
07C0
07C0
07C0
07C0
07C0
07C0
07C0
07C0
07C0
07C0
07C0
07C0
07C0
07C0
07C0
07C0
07C0
07C0
07C0
07C0
07C0
07C0
07C0
07C0
07C0
07C0
FFC0
FFC0
FFC0
FFC0
ENDCHAR
STARTCHAR asciicircum
ENCODING 94
SWIDTH 417 0
DWIDTH 23 0
BBX 19 19 2 20
BITMAP
00E000
01F000
01F000
03F800
03F800
07F800
07FC00
07BC00
0FBE00
0F1E00
1F1F00
1E1F00
3E0F00
3E0F80
3C0780
7C07C0
7803C0
F803E0
F803E0
ENDCHAR
STARTCHAR underscore
ENCODING 95
SWIDTH 451 0
DWIDTH 25 0
BBX 25 4 0 -4
BITMAP
FFFFFF80
FFFFFF80
FFFFFF80
FFFFFF80
ENDCHAR
STARTCHAR grave
ENCODING 96
SWIDTH 309 0
DWIDTH 17 0
BBX 11 8 2 33
BITMAP
FC00
7E00
3E00
1F00
1F80
0F80
07C0
03E0
ENDCHAR
STARTCHAR a
ENCODING 97
SWIDTH 543 0
DWIDTH 30 0
BBX 24 31 3 -1
BITMAP
00FF00
03FFE0
0FFFF0
1FFFF8
3F81FC
7E00FC
7C007C
7C003E
7C003E
00003E
00003E
00003E
00FFFE
07FFFE
0FFFFE
3FFFFE
3FC03E
7E003E
7C003E
F8003E
F8003E
F8003E
F8003E
F8007E
FC00FE
7C01FE
7F07FE
3FFFFE
1FFFBF
0FFE1F
03F800
ENDCHAR
STARTCHAR b
ENCODING 98
SWIDTH 561 0
DWIDTH 31 0
BBX 24 42 4 -1
BITMAP
F80000
F80000
F80000
F80000
F80000
F80000
F80000
F80000
F80000
F80000
F80000
F83F00
F9FFE0
FBFFF0
FFFFF8
FF81FC
FE00FC
FC007E
F8003E
F8003F
F8001F
F8001F
F8001F
F8001F
F8001F
F8001F
F8001F
F8001F
F8001F
F8001F
F8001F
F8001F
F8001F
F8003F
FC003E
FC007E
FE00FC
FF81FC
FFFFF8
FBFFF0
F1FFE0
007F00
ENDCHAR
STARTCHAR c
ENCODING 99
SWIDTH 523 0
DWIDTH 29 0
BBX 24 31 3 -1
BITMAP
007F00
03FFE0
07FFF0
0FFFF8
1FC1FC
3F007E
7E003E
7C003F
7C001F
F8001F
F8001F
F80000
F80000
F80000
F80000
F80000
F80000
F80000
F80000
F80000
F80000
F8001F
7C001F
7C001F
7E003E
3F007E
1FC1FC
0FFFF8
07FFF0
03FFC0
007F00
ENDCHAR
STARTCHAR d
ENCODING 100
SWIDTH 563 0
DWIDTH 31 0
BBX 24 42 3 -1
BITMAP
00001F
00001F
00001F
00001F
00001F
00001F
00001F
00001F
00001F
00001F
00001F
00FE1F
03FF9F
0FFFDF
1FFFFF
3FC1FF
3F007F
7E003F
7C001F
FC001F
F8001F
F8001F
F8001F
F8001F
F8001F
F8001F
F8001F
F8001F
F8001F
F8001F
F8001F
F8001F
F8001F
7C001F
7C001F
7E003F
3F007F
1FC1FF
1FFFFF
0FFFDF
03FF9F
00FE00
ENDCHAR
STARTCHAR e
ENCODING 101
SWIDTH 529 0
DWIDTH 29 0
BBX 25 31 2 -1
BITMAP
003F8000
01FFE000
03FFF800
07FFFC00
0FE0FC00
1F807E00
1F003F00
3E001F00
3E001F00
7C000F80
7C000F80
7C000F80
7C000F80
FFFFFF80
FFFFFF80
FFFFFF80
FFFFFF80
F8000000
78000000
7C000000
7C000000
7C000000
7E000000
3E000600
3F000F00
1F801F80
0FE07F00
07FFFE00
03FFFC00
01FFF000
003FC000
ENDCHAR
STARTCHAR f
ENCODING 102
SWIDTH 347 0
DWIDTH 19 0
BBX 17 42 2 0
BITMAP
003F80
00FF80
01FF80
03FF80
07F000
07C000
07C000
0F8000
0F8000
0F8000
0F8000
0F8000
0F8000
FFFE00
FFFE00
FFFE00
FFFE00
0F8000
0F8000
0F8000
0F8000
0F8000
0F8000
0F8000
0F8000
0F8000
0F8000
0F8000
0F8000
0F8000
0F8000
0F8000
0F8000
0F8000
0F8000
0F8000
0F8000
0F8000
0F8000
0F8000
0F8000
0F8000
ENDCHAR
STARTCHAR g
ENCODING 103
SWIDTH 561 0
DWIDTH 31 0
BBX 24 41 3 -11
BITMAP
00FE00
03FF8F
0FFFCF
1FFFFF
1FC1FF
3F007F
7E003F
7C001F
7C001F
F8001F
F8001F
F8001F
F8001F
F8001F
F8001F
F8001F
F8001F
F8001F
F8001F
F8001F
F8001F
F8001F
7C001F
7C001F
7E003F
3F007F
1FC1FF
1FFFFF
0FFFDF
03FF9F
00FE1F
00001F
00001F
00003F
18003E
3C007E
7F01FC
3FFFF8
1FFFF0
07FFC0
00FF00
ENDCHAR
STARTCHAR h
ENCODING 104
SWIDTH 550 0
DWIDTH 30 0
BBX 22 41 4 0
BITMAP
F80000
F80000
F80000
F80000
F80000
F80000
F80000
F80000
F80000
F80000
F80000
F83F80
F8FFE0
FBFFF0
FFFFF8
FF83F8
FE00FC
FC007C
F8007C
F8007C
F8007C
F8007C
F8007C
F8007C
F8007C
F8007C
F8007C
F8007C
F8007C
F8007C
F8007C
F8007C
F8007C
F8007C
F8007C
F8007C
F8007C
F8007C
F8007C
F8007C
F8007C
ENDCHAR
STARTCHAR i
ENCODING 105
SWIDTH 242 0
DWIDTH 13 0
BBX 6 40 4 0
BITMAP
70
F8
F8
FC
F8
70
00
00
00
00
00
F8
F8
F8
F8
F8
F8
F8
F8
F8
F8
F8
F8
F8
F8
F8
F8
F8
F8
F8
F8
F8
F8
F8
F8
F8
F8
F8
F8
F8
ENDCHAR
STARTCHAR j
ENCODING 106
SWIDTH 238 0
DWIDTH 13 0
BBX 11 52 -2 -12
BITMAP
03C0
03E0
07E0
07E0
03E0
03C0
0000
0000
0000
0000
0000
03E0
03E0
03E0
03E0
03E0
03E0
03E0
03E0
03E0
03E0
03E0
03E0
03E0
03E0
03E0
03E0
03E0
03E0
03E0
03E0
03E0
03E0
03E0
03E0
03E0
03E0
03E0
03E0
03E0
03E0
03E0
03E0
03E0
03E0
03E0
07E0
0FC0
FFC0
FF80
FF00
FE00
ENDCHAR
STARTCHAR k
ENCODING 107
SWIDTH 506 0
DWIDTH 28 0
BBX 24 41 4 0
BITMAP
F80000
F80000
F80000
F80000
F80000
F80000
F80000
F80000
F80000
F80000
F80000
F80000
F800FE
F801F8
F803F0
F807E0
F80FC0
F81F80
F83F00
F87F00
F8FE00
F9FC00
F9F800
FBF000
FFF000
FFF000
FFF800
FFFC00
FE7E00
FC7E00
F83F00
F81F80
F80F80
F80FC0
F807E0
F803F0
F801F0
F801F8
F800FC
F8007E
F8003F
ENDCHAR
STARTCHAR l
ENCODING 108
SWIDTH 242 0
DWIDTH 13 0
BBX 5 41 4 0
BITMAP
F8
F8
F8
F8
F8
F8
F8
F8
F8
F8
F8
F8
F8
F8
F8
F8
F8
F8
F8
F8
F8
F8
F8
F8
F8
F8
F8
F8
F8
F8
F8
F8
F8
F8
F8
F8
F8
F8
F8
F8
F8
ENDCHAR
STARTCHAR m
ENCODING 109
SWIDTH 876 0
DWIDTH 48 0
BBX 40 30 4 0
BITMAP
007F801FC0
F1FFE07FF8
F3FFF1FFFC
F7FFFBFFFE
FF03FBC0FE
FE00FF803F
FC007F001F
F8007E001F
F8007E001F
F8007E001F
F8007E001F
F8007E001F
F8007E001F
F8007E001F
F8007E001F
F8007E001F
F8007E001F
F8007E001F
F8007E001F
F8007E001F
F8007E001F
F8007E001F
F8007E001F
F8007E001F
F8007E001F
F8007E001F
F8007E001F
F8007E001F
F8007E001F
F8007E001F
ENDCHAR
STARTCHAR n
ENCODING 110
SWIDTH 551 0
DWIDTH 30 0
BBX 22 30 4 0
BITMAP
003F80
F1FFE0
F3FFF0
F7FFF8
FF83F8
FE00FC
FC007C
F8007C
F8007C
F8007C
F8007C
F8007C
F8007C
F8007C
F8007C
F8007C
F8007C
F8007C
F8007C
F8007C
F8007C
F8007C
F8007C
F8007C
F8007C
F8007C
F8007C
F8007C
F8007C
F8007C
ENDCHAR
STARTCHAR o
ENCODING 111
SWIDTH 570 0
DWIDTH 31 0
BBX 27 31 2 -1
BITMAP
003F8000
01FFF000
03FFF800
07FFFC00
0FE0FE00
1F803F00
3F001F80
3E000F80
7E000FC0
7C0007C0
7C0007C0
7C0007C0
F80003E0
F80003E0
F80003E0
F80003E0
F80003E0
F80003E0
F80007E0
7C0007C0
7C0007C0
7C0007C0
7E000FC0
3E000F80
3F001F80
1F803F00
0FE0FE00
07FFFC00
03FFF800
01FFF000
003F8000
ENDCHAR
STARTCHAR p
ENCODING 112
SWIDTH 561 0
DWIDTH 31 0
BBX 24 41 4 -11
BITMAP
007F00
F1FFE0
FBFFF0
FFFFF8
FF83FC
FE00FC
FC007E
F8003E
F8003F
F8001F
F8001F
F8001F
F8001F
F8001F
F8001F
F8001F
F8001F
F8001F
F8001F
F8001F
F8001F
F8001F
F8003E
F8003E
FC007E
FE00FC
FF83FC
FFFFF8
FBFFF0
F9FFE0
F87F80
F80000
F80000
F80000
F80000
F80000
F80000
F80000
F80000
F80000
F80000
ENDCHAR
STARTCHAR q
ENCODING 113
SWIDTH 568 0
DWIDTH 31 0
BBX 25 41 2 -11
BITMAP
007F0000
03FFCF80
07FFEF80
0FFFFF80
1FE0FF80
1F803F80
3F001F80
3E000F80
7E000F80
7C000F80
7C000F80
7C000F80
7C000F80
F8000F80
F8000F80
F8000F80
F8000F80
F8000F80
7C000F80
7C000F80
7C000F80
7C000F80
7E000F80
3E000F80
3F001F80
1F803F80
1FE0FF80
0FFFFF80
07FFEF80
03FFCF80
00FE0F80
00000F80
00000F80
00000F80
00000F80
00000F80
00000F80
00000F80
00000F80
00000F80
00000F80
ENDCHAR
STARTCHAR r
ENCODING 114
SWIDTH 338 0
DWIDTH 19 0
BBX 14 30 4 0
BITMAP
007C
F9FC
FBFC
FFFC
FF80
FE00
FC00
F800
F800
F800
F800
F800
F800
F800
F800
F800
F800
F800
F800
F800
F800
F800
F800
F800
F800
F800
F800
F800
F800
F800
ENDCHAR
STARTCHAR s
ENCODING 115
SWIDTH 515 0
DWIDTH 28 0
BBX 23 31 2 -1
BITMAP
00FF00
03FFE0
0FFFF0
1FFFF8
1F81FC
3F00FC
3E007E
7C003E
7C003E
7C0000
3E0000
3F0000
3FC000
1FF800
0FFF80
03FFE0
007FF8
000FFC
0001FE
00007E
00003E
00003E
F8003E
7C003E
7C003E
7E007E
3F81FC
1FFFFC
0FFFF8
03FFE0
00FF00
ENDCHAR
STARTCHAR t
ENCODING 116
SWIDTH 326 0
DWIDTH 18 0
BBX 16 37 0 -1
BITMAP
03E0
03E0
03E0
03E0
03E0
03E0
03E0
FFFF
FFFF
FFFF
FFFF
03E0
03E0
03E0
03E0
03E0
03E0
03E0
03E0
03E0
03E0
03E0
03E0
03E0
03E0
03E0
03E0
03E0
03E0
03E0
03E0
03E0
03F0
03FF
01FF
00FF
007F
ENDCHAR
STARTCHAR u
ENCODING 117
SWIDTH 551 0
DWIDTH 30 0
BBX 22 30 4 -1
BITMAP
F0007C
F0007C
F0007C
F0007C
F0007C
F0007C
F0007C
F0007C
F0007C
F0007C
F0007C
F0007C
F0007C
F0007C
F0007C
F0007C
F0007C
F0007C
F0007C
F0007C
F8007C
F8007C
F8007C
F800FC
FC01FC
7E07FC
7FFFFC
3FFFBC
1FFE3C
07F800
ENDCHAR
STARTCHAR v
ENCODING 118
SWIDTH 484 0
DWIDTH 27 0
BBX 25 29 1 0
BITMAP
F8000F80
7C001F00
7C001F00
7C001F00
3E003E00
3E003E00
3E003C00
1F007C00
1F007C00
0F007800
0F80F800
0F80F800
0780F000
07C1F000
07C1F000
03C1E000
03E3E000
03E3E000
01E3C000
01F7C000
00F78000
00F78000
00FF8000
007F0000
007F0000
007F0000
003E0000
003E0000
003E0000
ENDCHAR
STARTCHAR w
ENCODING 119
SWIDTH 751 0
DWIDTH 41 0
BBX 39 29 1 0
BITMAP
F8007C003E
F8007C003C
7C007C007C
7C00FE007C
7C00FE007C
3C00FE0078
3E01FE00F8
3E01FF00F8
3E01EF00F0
1E03EF00F0
1F03CF81F0
1F03C781F0
0F03C781E0
0F0787C1E0
0F8783C3E0
078783C3C0
078F03E3C0
07CF01E7C0
07CF01E7C0
03DE01F780
03DE00F780
03FE00FF80
01FC00FF00
01FC007F00
01FC007F00
01FC007E00
00F8003E00
00F8003E00
00F8003E00
ENDCHAR
STARTCHAR x
ENCODING 120
SWIDTH 495 0
DWIDTH 27 0
BBX 25 29 1 0
BITMAP
FC001F80
7E003F00
3F007E00
1F007C00
1F80FC00
0F80F800
07C1F000
07E3F000
03E3E000
01F7C000
01F7C000
00FF8000
007F0000
007F0000
003E0000
007F0000
00FF8000
00FF8000
01F7C000
03F7E000
03E3E000
07E1F000
0FC1F800
0F80F800
1F807C00
3F007E00
3E003E00
7E003F00
FC001F80
ENDCHAR
STARTCHAR y
ENCODING 121
SWIDTH 473 0
DWIDTH 26 0
BBX 24 41 1 -12
BITMAP
F8001F
FC001F
FC003E
7C003E
7C003E
3E007C
3E007C
3E007C
1F00F8
1F00F8
1F00F8
0F81F0
0F81F0
0F81F0
07C1E0
07C3E0
07C3E0
03E3C0
03E7C0
01E7C0
01F780
01FF80
00FF80
00FF00
00FF00
007F00
007E00
007E00
003C00
003C00
007C00
007800
007800
00F800
00F000
01F000
07E000
7FE000
7FC000
7F8000
7E0000
ENDCHAR
STARTCHAR z
ENCODING 122
SWIDTH 495 0
DWIDTH 27 0
BBX 23 29 2 0
BITMAP
7FFFFE
7FFFFE
7FFFFE
7FFFFE
0000FC
0001F8
0001F0
0003F0
0007E0
000FC0
000F80
001F80
003F00
007E00
007C00
00FC00
01F800
03F000
03E000
07E000
0FC000
1F8000
1F0000
3F0000
7E0000
FFFFFE
FFFFFE
FFFFFE
FFFFFE
ENDCHAR
STARTCHAR braceleft
ENCODING 123
SWIDTH 338 0
DWIDTH 19 0
BBX 16 53 2 -10
BITMAP
0002
001F
003F
007E
00FC
01F8
01F0
03E0
03E0
03E0
03E0
03E0
03E0
03E0
03E0
03E0
03E0
03E0
03E0
03C0
07C0
07C0
07C0
0F80
1F80
FF00
FE00
FE00
FF00
1F80
0FC0
07C0
07C0
07C0
03C0
03E0
03E0
03E0
03E0
03E0
03E0
03E0
03E0
03E0
03E0
03E0
01F0
01F0
00F8
007E
003F
001F
0002
ENDCHAR
STARTCHAR bar
ENCODING 124
SWIDTH 243 0
DWIDTH 13 0
BBX 4 46 5 -7
BITMAP
F0
F0
F0
F0
F0
F0
F0
F0
F0
F0
F0
F0
F0
F0
F0
F0
F0
F0
F0
F0
F0
F0
F0
F0
F0
F0
F0
F0
F0
F0
F0
F0
F0
F0
F0
F0
F0
F0
F0
F0
F0
F0
F0
F0
F0
F0
ENDCHAR
STARTCHAR braceright
ENCODING 125
SWIDTH 338 0
DWIDTH 19 0
BBX 16 53 1 -10
BITMAP
4000
F000
FC00
7E00
3F00
1F80
0F80
0FC0
07C0
07C0
07C0
07C0
07C0
07C0
07C0
07C0
07C0
07C0
07C0
07C0
03E0
03E0
03E0
03F0
01F8
00FF
007F
007F
00FF
01F8
03F0
03E0
03E0
07C0
07C0
07C0
07C0
07C0
07C0
07C0
07C0
07C0
07C0
07C0
07C0
07C0
0F80
1F80
3F00
7E00
FC00
F000
4000
ENDCHAR
STARTCHAR breve
ENCODING 728
SWIDTH 426 0
DWIDTH 23 0
BBX 16 7 3 33
BITMAP
F00F
F00F
780F
7C3E
3FFE
1FFC
07F0
ENDCHAR
STARTCHAR dotaccent
ENCODING 729
SWIDTH 242 0
DWIDTH 13 0
BBX 6 6 4 34
BITMAP
70
F8
F8
FC
F8
70
ENDCHAR
STARTCHAR ring
ENCODING 730
SWIDTH 334 0
DWIDTH 18 0
BBX 12 11 3 32
BITMAP
1F00
3FC0
7BE0
E0E0
E060
E070
E070
E0E0
7BE0
3FC0
1F00
ENDCHAR
ENDFONT
